:FULLY-SPECIFIED
:FORCE-ALL-JOINTS-BE-3DOF
:DEGREES
2141
root -2.48449 15.2367 0.46366 904.337 9.57328 189.506
lfemur -60.0691 20.9833 -23.8155
ltibia 36.4107 0 0
lfoot 14.0638 19.6827 0
ltoes 11.4065 0 0
rfemur 10.8434 -3.92434 28.9525
rtibia 40.4494 0 0
rfoot -23.284 6.66709 0
rtoes -34.9058 0 0
lowerback 8.67271 1.17715 2.27776
upperback -2.58836 2.2809 3.96208
thorax -7.64596 1.18699 2.56824
lowerneck -6.02488 -0.696294 -5.66953
upperneck 8.01358 -0.678667 3.14109
head 3.66829 -0.351178 1.98009
lclavicle -3.56925e-14 -5.75889e-14 0
lhumerus 62.9753 -2.80438 100.457
lradius 8.8004 0 0
lwrist -65.8394 0 0
lhand -37.7564 436.179 0
lfingers 7.12502 0 0
lthumb -10.8046 -232.598 0
rclavicle -3.56925e-14 -5.75889e-14 0
rhumerus -63.8463 22.363 -103.996
rradius 115.078 0 0
rwrist -98.4725 0 0
rhand -11.1155 -392.335 0
rfingers 7.12502 0 0
rthumb 14.3403 301.816 0
2142
root -2.47451 15.2385 0.256763 904.186 9.44532 189.503
lfemur -60.1064 21.0172 -23.8906
ltibia 36.1841 0 0
lfoot 13.8253 19.8808 0
ltoes 11.507 0 0
rfemur 10.8172 -4.00612 28.8111
rtibia 40.3428 0 0
rfoot -22.9188 6.79848 0
rtoes -34.8912 0 0
lowerback 8.71547 1.13726 2.18479
upperback -2.57872 2.21255 3.97984
thorax -7.65408 1.15708 2.653
lowerneck -6.07455 -0.67224 -5.65862
upperneck 8.17224 -0.653685 3.10844
head 3.7192 -0.340792 1.96246
lclavicle -3.60191e-14 -5.74486e-14 0
lhumerus 64.0383 -3.0291 100.205
lradius 8.34337 0 0
lwrist -66.2505 0 0
lhand -37.9932 439.542 0
lfingers 7.12502 0 0
lthumb -11.0331 -226.695 0
rclavicle -3.60191e-14 -5.74486e-14 0
rhumerus -64.5346 22.3617 -104.234
rradius 116.091 0 0
rwrist -99.0958 0 0
rhand -10.339 -392.181 0
rfingers 7.12502 0 0
rthumb 14.9797 302.708 0
2143
root -2.4639 15.2407 0.0453168 904.022 9.28743 189.489
lfemur -60.0881 21.0318 -23.9617
ltibia 35.9924 0 0
lfoot 13.5461 20.0778 0
ltoes 11.5529 0 0
rfemur 10.7206 -4.08597 28.6505
rtibia 40.2561 0 0
rfoot -22.5168 6.92259 0
rtoes -34.8313 0 0
lowerback 8.76427 1.09647 2.07963
upperback -2.56587 2.14063 3.99507
thorax -7.66178 1.1257 2.74271
lowerneck -6.12302 -0.654274 -5.64962
upperneck 8.33672 -0.6378 3.07849
head 3.77201 -0.335103 1.94534
lclavicle -3.63024e-14 -5.72416e-14 0
lhumerus 65.0339 -3.2981 99.9414
lradius 7.96063 0 0
lwrist -66.5756 0 0
lhand -38.2149 442.77 0
lfingers 7.12502 0 0
lthumb -11.2469 -220.999 0
rclavicle -3.63024e-14 -5.72416e-14 0
rhumerus -65.1431 22.3445 -104.431
rradius 117.095 0 0
rwrist -99.6611 0 0
rhand -9.48895 -392.025 0
rfingers 7.12502 0 0
rthumb 15.6812 303.662 0
2144
root -2.45262 15.2431 -0.170644 903.845 9.09803 189.462
lfemur -60.0104 21.0259 -24.0282
ltibia 35.8376 0 0
lfoot 13.2244 20.2734 0
ltoes 11.5408 0 0
rfemur 10.5494 -4.16386 28.4699
rtibia 40.1908 0 0
rfoot -22.0771 7.03887 0
rtoes -34.7235 0 0
lowerback 8.81933 1.05483 1.96172
upperback -2.54968 2.06511 4.00753
thorax -7.66904 1.09283 2.83744
lowerneck -6.17002 -0.642886 -5.64275
upperneck 8.50687 -0.631711 3.05155
head 3.82669 -0.334461 1.92883
lclavicle -3.65385e-14 -5.69644e-14 0
lhumerus 65.9545 -3.61307 99.6673
lradius 7.65797 0 0
lwrist -66.808 0 0
lhand -38.4198 445.848 0
lfingers 7.12502 0 0
lthumb -11.4446 -215.538 0
rclavicle -3.65385e-14 -5.69644e-14 0
rhumerus -65.6648 22.3103 -104.581
rradius 118.086 0 0
rwrist -100.162 0 0
rhand -8.56387 -391.869 0
rfingers 7.12502 0 0
rthumb 16.4459 304.679 0
2145
root -2.44064 15.2458 -0.391085 903.655 8.87554 189.421
lfemur -59.8698 20.9981 -24.0897
ltibia 35.7219 0 0
lfoot 12.8582 20.4672 0
ltoes 11.4673 0 0
rfemur 10.2995 -4.23976 28.2684
rtibia 40.1484 0 0
rfoot -21.5984 7.1468 0
rtoes -34.5652 0 0
lowerback 8.88089 1.01241 1.83049
upperback -2.53001 1.98597 4.01699
thorax -7.67584 1.05849 2.93728
lowerneck -6.21527 -0.638567 -5.63823
upperneck 8.68254 -0.636116 3.02791
head 3.88319 -0.339218 1.91302
lclavicle -3.67237e-14 -5.66134e-14 0
lhumerus 66.7927 -3.9757 99.3825
lradius 7.44119 0 0
lwrist -66.941 0 0
lhand -38.6062 448.761 0
lfingers 7.12502 0 0
lthumb -11.6245 -210.338 0
rclavicle -3.67237e-14 -5.66134e-14 0
rhumerus -66.093 22.258 -104.684
rradius 119.058 0 0
rwrist -100.593 0 0
rhand -7.56238 -391.713 0
rfingers 7.12502 0 0
rthumb 17.2751 305.758 0
2146
root -2.42792 15.2487 -0.615975 903.452 8.61838 189.365
lfemur -59.6627 20.9473 -24.1456
ltibia 35.6475 0 0
lfoot 12.4458 20.6591 0
ltoes 11.3289 0 0
rfemur 9.96649 -4.31362 28.0451
rtibia 40.1303 0 0
rfoot -21.0797 7.24584 0
rtoes -34.3539 0 0
lowerback 8.94916 0.969277 1.68541
upperback -2.50675 1.90316 4.02323
thorax -7.68217 1.02267 3.04228
lowerneck -6.25848 -0.641808 -5.63627
upperneck 8.8636 -0.651712 3.00787
head 3.94147 -0.349727 1.89803
lclavicle -3.68541e-14 -5.61851e-14 0
lhumerus 67.5411 -4.38769 99.0872
lradius 7.31606 0 0
lwrist -66.9681 0 0
lhand -38.7725 451.496 0
lfingers 7.12502 0 0
lthumb -11.7849 -205.424 0
rclavicle -3.68541e-14 -5.61851e-14 0
rhumerus -66.4207 22.1862 -104.734
rradius 120.008 0 0
rwrist -100.948 0 0
rhand -6.4831 -391.557 0
rfingers 7.12502 0 0
rthumb 18.17 306.902 0
2147
root -2.41444 15.2519 -0.845278 903.236 8.32495 189.294
lfemur -59.3854 20.8722 -24.1955
ltibia 35.6165 0 0
lfoot 11.9851 20.8487 0
ltoes 11.1224 0 0
rfemur 9.54628 -4.38541 27.7993
rtibia 40.1382 0 0
rfoot -20.5197 7.33546 0
rtoes -34.0871 0 0
lowerback 9.02437 0.925493 1.52591
upperback -2.47975 1.81668 4.02599
thorax -7.68802 0.985365 3.15251
lowerneck -6.29938 -0.653101 -5.6371
upperneck 9.0499 -0.679198 2.99173
head 4.0015 -0.366339 1.88394
lclavicle -3.6926e-14 -5.56761e-14 0
lhumerus 68.1922 -4.85072 98.7813
lradius 7.28837 0 0
lwrist -66.8826 0 0
lhand -38.917 454.039 0
lfingers 7.12502 0 0
lthumb -11.9243 -200.824 0
rclavicle -3.6926e-14 -5.56761e-14 0
rhumerus -66.6412 22.0938 -104.73
rradius 120.931 0 0
rwrist -101.221 0 0
rhand -5.32463 -391.401 0
rfingers 7.12502 0 0
rthumb 19.1318 308.109 0
2148
root -2.40015 15.2554 -1.07896 903.006 7.99369 189.207
lfemur -59.0344 20.7717 -24.2387
ltibia 35.6312 0 0
lfoot 11.4744 21.0357 0
ltoes 10.8442 0 0
rfemur 9.03461 -4.45509 27.53
rtibia 40.1736 0 0
rfoot -19.9173 7.41513 0
rtoes -33.7621 0 0
lowerback 9.10675 0.881124 1.35145
upperback -2.44888 1.72648 4.02506
thorax -7.69336 0.946572 3.26806
lowerneck -6.33768 -0.672936 -5.64094
upperneck 9.24128 -0.719272 2.97979
head 4.06324 -0.389406 1.87087
lclavicle -3.69355e-14 -5.50829e-14 0
lhumerus 68.7385 -5.36648 98.4652
lradius 7.3639 0 0
lwrist -66.6777 0 0
lhand -39.0381 456.375 0
lfingers 7.12502 0 0
lthumb -12.0411 -196.563 0
rclavicle -3.69355e-14 -5.50829e-14 0
rhumerus -66.7476 21.9798 -104.668
rradius 121.824 0 0
rwrist -101.406 0 0
rhand -4.08557 -391.247 0
rfingers 7.12502 0 0
rthumb 20.1616 309.381 0
2149
root -2.38503 15.2591 -1.31699 902.762 7.62299 189.102
lfemur -58.606 20.6444 -24.2749
ltibia 35.6937 0 0
lfoot 10.9118 21.2199 0
ltoes 10.4909 0 0
rfemur 8.42726 -4.52263 27.2364
rtibia 40.2379 0 0
rfoot -19.2715 7.48432 0
rtoes -33.3766 0 0
lowerback 9.19651 0.836235 1.16146
upperback -2.41401 1.63255 4.02019
thorax -7.69818 0.906291 3.38898
lowerneck -6.3731 -0.701804 -5.648
upperneck 9.43761 -0.772631 2.97236
head 4.12664 -0.41928 1.8589
lclavicle -3.68789e-14 -5.44018e-14 0
lhumerus 69.1727 -5.93668 98.1389
lradius 7.54844 0 0
lwrist -66.3468 0 0
lhand -39.1341 458.492 0
lfingers 7.12502 0 0
lthumb -12.1336 -192.668 0
rclavicle -3.68789e-14 -5.44018e-14 0
rhumerus -66.733 21.8428 -104.545
rradius 122.682 0 0
rwrist -101.496 0 0
rhand -2.76451 -391.094 0
rfingers 7.12502 0 0
rthumb 21.2607 310.719 0
